<svg width="121" height="121" viewBox="0 0 121 121" fill="none" xmlns="http://www.w3.org/2000/svg">
<g clip-path="url(#clip0_100_135)">
<mask id="mask0_100_135" style="mask-type:luminance" maskUnits="userSpaceOnUse" x="0" y="0" width="121" height="121">
<path d="M121 0H0V121H121V0Z" fill="white"/>
</mask>
<g mask="url(#mask0_100_135)">
<path d="M25.8109 42.5823C23.2198 39.025 18.2356 38.2417 14.6783 40.8328C11.121 43.4239 10.3378 48.4081 12.9289 51.9654L57.0469 112.535C59.638 116.092 64.6222 116.876 68.1795 114.285C71.7367 111.694 72.52 106.709 69.9289 103.152L25.8109 42.5823Z" fill="white"/>
<path d="M93.1357 18.0151C98.6136 15.8649 103.626 22.0084 100.419 26.943L79.0848 59.7786C77.0727 62.8755 72.7795 63.4626 70.0098 61.0197L62.4806 54.3791C61.8691 53.8397 61.3729 53.1822 61.0218 52.4462L55.05 39.9248C53.5388 36.7565 55.0326 32.9713 58.3002 31.6887L93.1357 18.0151Z" fill="white"/>
<path d="M44.1469 41.0581C45.8466 40.7511 47.5273 41.6844 48.1653 43.2895L52.7995 54.9484C53.0902 55.6799 53.6108 56.297 54.2828 56.7068L67.9592 65.0465C69.5199 65.9983 70.1294 67.9619 69.3819 69.6301L59.9761 90.6224C58.8358 93.1672 55.3711 93.5294 53.7292 91.2753L23.6992 50.0468C22.1223 47.882 23.3527 44.8135 25.9882 44.3375L44.1469 41.0581Z" fill="white"/>
</g>
</g>
<defs>
<clipPath id="clip0_100_135">
<rect width="121" height="121" fill="white"/>
</clipPath>
</defs>
</svg>
